<svg width="40" height="40" viewBox="0 0 40 40" fill="none" xmlns="http://www.w3.org/2000/svg">
<path d="M19.1667 36.6666C16.6111 36.6666 14.4444 35.7778 12.6667 34C10.8889 32.2222 10 30.0555 10 27.5V9.99998C10 8.16665 10.6528 6.5972 11.9583 5.29165C13.2639 3.98609 14.8333 3.33331 16.6667 3.33331C18.5 3.33331 20.0694 3.98609 21.375 5.29165C22.6806 6.5972 23.3333 8.16665 23.3333 9.99998V25.8333C23.3333 27 22.9306 27.9861 22.125 28.7916C21.3194 29.5972 20.3333 30 19.1667 30C18 30 17.0139 29.5972 16.2083 28.7916C15.4028 27.9861 15 27 15 25.8333V9.99998H17.5V25.8333C17.5 26.3055 17.6597 26.7014 17.9792 27.0208C18.2986 27.3403 18.6944 27.5 19.1667 27.5C19.6389 27.5 20.0347 27.3403 20.3542 27.0208C20.6736 26.7014 20.8333 26.3055 20.8333 25.8333V9.99998C20.8333 8.83331 20.4306 7.8472 19.625 7.04165C18.8194 6.23609 17.8333 5.83331 16.6667 5.83331C15.5 5.83331 14.5139 6.23609 13.7083 7.04165C12.9028 7.8472 12.5 8.83331 12.5 9.99998V27.5C12.5 29.3333 13.1528 30.9028 14.4583 32.2083C15.7639 33.5139 17.3333 34.1666 19.1667 34.1666C21 34.1666 22.5694 33.5139 23.875 32.2083C25.1806 30.9028 25.8333 29.3333 25.8333 27.5V9.99998H28.3333V27.5C28.3333 30.0555 27.4444 32.2222 25.6667 34C23.8889 35.7778 21.7222 36.6666 19.1667 36.6666Z" fill="#49454F"/>
</svg>
