<svg width="42" height="34" viewBox="0 0 42 34" fill="none" xmlns="http://www.w3.org/2000/svg">
<path d="M33.6972 27.2151C32.6079 27.3981 31.8732 28.4295 32.0562 29.5188C32.2391 30.6082 33.2705 31.3429 34.3599 31.1599L33.6972 27.2151ZM31.4484 15.7966C30.3438 15.7966 29.4484 16.692 29.4484 17.7966C29.4484 18.9012 30.3438 19.7966 31.4484 19.7966V15.7966ZM29.5258 13.3388C32.5549 13.3388 35.0095 10.8827 35.0095 7.85414H31.0095C31.0095 8.67465 30.3447 9.33885 29.5258 9.33885V13.3388ZM24.0421 7.85414C24.0421 10.8827 26.4967 13.3388 29.5258 13.3388V9.33885C28.7069 9.33885 28.0421 8.67465 28.0421 7.85414H24.0421ZM29.5258 2.36944C26.4967 2.36944 24.0421 4.82555 24.0421 7.85414H28.0421C28.0421 7.03363 28.7069 6.36944 29.5258 6.36944V2.36944ZM35.0095 7.85414C35.0095 4.82555 32.5549 2.36944 29.5258 2.36944V6.36944C30.3447 6.36944 31.0095 7.03363 31.0095 7.85414H35.0095ZM37.75 23.5918C37.75 24.4698 37.4727 25.1918 36.9271 25.7641C36.3637 26.3552 35.3701 26.9341 33.6972 27.2151L34.3599 31.1599C36.6485 30.7754 38.5156 29.8951 39.8225 28.524C41.1473 27.1341 41.75 25.391 41.75 23.5918H37.75ZM31.4484 19.7966C33.3819 19.7966 35.0464 20.347 36.1737 21.1339C37.3077 21.9255 37.75 22.8258 37.75 23.5918H41.75C41.75 21.1573 40.3339 19.1599 38.4633 17.854C36.586 16.5435 34.0996 15.7966 31.4484 15.7966V19.7966ZM17.4636 7.47781C17.4636 9.67604 16.0177 10.8973 14.5246 10.8973V14.8973C18.487 14.8973 21.4636 11.6158 21.4636 7.47781H17.4636ZM14.5246 10.8973C13.0316 10.8973 11.5857 9.67604 11.5857 7.47781H7.58568C7.58568 11.6158 10.5623 14.8973 14.5246 14.8973V10.8973ZM11.5857 7.47781C11.5857 6.38023 11.9569 5.64986 12.4267 5.19293C12.9088 4.72401 13.6256 4.41666 14.5246 4.41666V0.416656C12.6959 0.416656 10.9433 1.05584 9.63784 2.32548C8.32009 3.6071 7.58568 5.40731 7.58568 7.47781H11.5857ZM14.5246 4.41666C15.4237 4.41666 16.1405 4.72401 16.6226 5.19293C17.0924 5.64986 17.4636 6.38024 17.4636 7.47781H21.4636C21.4636 5.40731 20.7292 3.6071 19.4114 2.32548C18.106 1.05584 16.3533 0.416656 14.5246 0.416656V4.41666ZM25.3964 25.6831C25.3964 26.3736 25.0495 27.2589 23.4713 28.0817C21.827 28.9391 19.0494 29.5833 14.8232 29.5833L14.8232 33.5833C19.3601 33.5833 22.8691 32.9068 25.3206 31.6286C27.8383 30.3159 29.3964 28.2511 29.3964 25.6831H25.3964ZM14.8232 29.5833C10.597 29.5833 7.81937 28.9391 6.17505 28.0817C4.59691 27.2589 4.25 26.3736 4.25 25.6831H0.25C0.25 28.2511 1.80812 30.3159 4.32579 31.6286C6.77729 32.9068 10.2863 33.5833 14.8232 33.5833L14.8232 29.5833ZM4.25 25.6831C4.25 25.2864 4.66906 24.3132 6.78225 23.3215C8.73675 22.4043 11.5775 21.7828 14.8232 21.7828V17.7828C11.1249 17.7828 7.67906 18.4821 5.08296 19.7004C2.64554 20.8442 0.25 22.821 0.25 25.6831H4.25ZM14.8232 21.7828C18.0689 21.7828 20.9096 22.4043 22.8641 23.3215C24.9773 24.3132 25.3964 25.2864 25.3964 25.6831H29.3964C29.3964 22.821 27.0008 20.8442 24.5634 19.7004C21.9673 18.4821 18.5215 17.7828 14.8232 17.7828V21.7828Z" fill="#1E1E1E"/>
</svg>
