<svg width="40" height="40" viewBox="0 0 40 40" fill="none" xmlns="http://www.w3.org/2000/svg">
<path d="M38 19C38.0069 21.6397 37.3901 24.2438 36.2 26.6C34.7889 29.4235 32.6195 31.7983 29.9349 33.4586C27.2503 35.1188 24.1565 35.9988 21 36C18.3603 36.0069 15.7562 35.3901 13.4 34.2L2 38L5.8 26.6C4.60986 24.2438 3.99312 21.6397 4 19C4.00122 15.8435 4.88122 12.7497 6.54144 10.0651C8.20165 7.38049 10.5765 5.21113 13.4 3.8C15.7562 2.60986 18.3603 1.99311 21 2H22C26.1687 2.22998 30.1061 3.98952 33.0583 6.94171C36.0105 9.89391 37.77 13.8313 38 18V19Z" stroke="#1E1E1E" stroke-width="4" stroke-linecap="round" stroke-linejoin="round"/>
<circle cx="14" cy="20" r="2" fill="black"/>
<circle cx="21" cy="20" r="2" fill="black"/>
<circle cx="28" cy="20" r="2" fill="black"/>
</svg>
