<svg width="46" height="47" viewBox="0 0 46 47" fill="none" xmlns="http://www.w3.org/2000/svg">
<path fill-rule="evenodd" clip-rule="evenodd" d="M40.6514 5.29037C40.6417 5.28036 40.6319 5.27046 40.622 5.26066C39.8244 4.46968 38.5367 4.47502 37.7457 5.27259L18.0667 25.1155L16.6161 29.4674L20.9639 28.0181L36.7158 12.2662L35.2764 10.7558C34.7048 10.1561 34.7277 9.20666 35.3274 8.63514C35.9271 8.06361 36.8766 8.08646 37.4481 8.68617L38.8377 10.1443L40.6263 8.35576C41.4699 7.5121 41.4811 6.14774 40.6514 5.29037ZM43.4387 2.42052C43.468 2.44961 43.497 2.47899 43.5258 2.50866C45.874 4.93516 45.8424 8.7965 43.4547 11.1842L23.4584 31.1804C23.2389 31.4 22.9712 31.5654 22.6767 31.6636L14.0863 34.5271C13.3676 34.7666 12.5753 34.5796 12.0396 34.0439C11.5039 33.5082 11.3169 32.7159 11.5564 31.9972L14.4199 23.4068C14.5172 23.1149 14.6806 22.8494 14.8972 22.6309L34.9056 2.45592C37.2521 0.0897858 41.0726 0.0739357 43.4387 2.42052ZM0 12.5855C0 8.31802 3.45947 4.85854 7.72695 4.85854H20.6126C21.7172 4.85854 22.6126 5.75397 22.6126 6.85854C22.6126 7.96311 21.7172 8.85854 20.6126 8.85854H7.72695C5.66861 8.85854 4 10.5272 4 12.5855V38.3578C4 40.4162 5.66861 42.0848 7.72695 42.0848H36.3617C38.42 42.0848 40.0886 40.4162 40.0886 38.3578V25.4711C40.0886 24.3666 40.9841 23.4711 42.0886 23.4711C43.1932 23.4711 44.0886 24.3666 44.0886 25.4711V38.3578C44.0886 42.6253 40.6292 46.0848 36.3617 46.0848H7.72695C3.45947 46.0848 0 42.6253 0 38.3578V12.5855Z" fill="#1E1E1E"/>
</svg>
