<svg width="19" height="19" viewBox="0 0 19 19" fill="none" xmlns="http://www.w3.org/2000/svg">
<path d="M10.2279 4.29901L14.3995 8.47057L7.11464 15.7554L1.25979 17.3676L2.872 11.5128L12.5741 1.81071C12.7208 1.71895 13.1496 1.48531 13.7236 1.45162C14.2964 1.41801 15.1304 1.57406 16.0919 2.53553C17.0534 3.49701 17.2094 4.33099 17.1758 4.90381C17.1421 5.47783 16.9085 5.90663 16.8167 6.05335L15.8137 7.05635L11.6422 2.88479L10.2279 4.29901ZM12.5924 1.79238C12.5928 1.79197 12.5928 1.79203 12.5923 1.79248L12.5924 1.79238ZM16.835 6.03502L16.8349 6.03512C16.8352 6.03487 16.8353 6.03474 16.8353 6.03474C16.8353 6.03474 16.8352 6.03483 16.835 6.03502Z" stroke="#EAEAEA" stroke-width="2"/>
</svg>
